<svg version="1.1" id="Layer_1" xmlns="http://www.w3.org/2000/svg" xmlns:xlink="http://www.w3.org/1999/xlink" x="0px" y="0px"
	 width="100%" viewBox="0 0 1024 1024" enable-background="new 0 0 1024 1024" xml:space="preserve">
<path fill="#000000" opacity="1.000000" stroke="none" 
	d="
M297.742615,552.332886 
	C267.010651,532.249329 245.886215,504.449860 229.722656,472.442780 
	C220.591492,454.361206 212.927414,435.700897 207.471832,416.159729 
	C206.165222,411.479584 207.327911,409.214600 211.866043,407.841888 
	C228.976456,402.666382 246.399109,399.030151 264.147308,396.898987 
	C266.713928,396.590759 269.563934,396.600433 271.357422,393.392670 
	C273.126953,396.294952 275.838898,395.742432 278.379028,395.550812 
	C291.370392,394.570953 304.441772,394.386993 317.303741,395.955505 
	C329.541199,397.447845 341.705933,399.606689 353.720001,403.111389 
	C383.435883,411.779968 407.351074,428.553833 427.708252,451.457336 
	C449.040009,475.457367 463.579865,503.230011 475.117615,532.843262 
	C477.640259,539.318054 480.240601,545.754272 481.701294,552.591919 
	C482.576355,556.688110 481.703979,557.822144 477.582306,556.834167 
	C472.896423,555.710754 468.255920,554.367065 463.652222,552.937256 
	C441.758514,546.137451 419.592133,540.024536 398.809052,530.159546 
	C379.914154,521.190857 362.084045,510.600922 348.786835,493.783112 
	C343.381744,486.946899 339.024017,479.581757 335.555847,471.613312 
	C334.632233,469.491333 335.135956,467.805939 335.873688,465.903198 
	C336.828979,463.439392 338.353485,460.983551 337.728821,458.244781 
	C336.353149,452.213043 333.950348,447.178680 323.877655,448.148285 
	C317.982910,448.715698 314.482941,452.584412 314.391083,459.309143 
	C314.299530,466.013306 318.678864,471.016235 325.351105,470.823914 
	C330.029297,470.689056 331.895294,472.656525 333.750122,476.692291 
	C343.586945,498.095184 360.206848,513.018860 380.329102,524.563416 
	C405.671783,539.103027 433.222839,547.735901 461.180847,555.361938 
	C466.760376,556.883911 472.287994,558.596008 478.021942,560.273743 
	C476.698517,565.344421 472.463898,565.062927 469.208008,565.877869 
	C458.956116,568.443970 448.698608,571.090698 438.311218,572.980408 
	C429.682068,574.550293 420.843292,574.927673 412.138855,576.132996 
	C399.653473,577.861877 387.223846,577.315247 374.776794,575.874695 
	C366.215515,574.883850 357.506897,574.630676 349.109955,572.873291 
	C334.471954,569.809753 320.378326,564.862549 307.160614,557.697144 
	C304.091553,556.033386 301.090393,554.244202 297.742615,552.332886 
z"/>
<path fill="#000000" opacity="1.000000" stroke="none" 
	d="
M490.724304,354.438416 
	C481.440918,358.725494 479.002716,365.185364 483.441925,372.386444 
	C485.747192,376.125916 489.125702,377.636078 493.191406,376.887756 
	C500.260193,375.586700 504.154846,378.993286 507.603455,384.681152 
	C517.679260,401.299347 522.761597,419.413849 524.046387,438.580292 
	C525.263123,456.730957 524.087097,474.899475 521.855774,492.910217 
	C519.961609,508.199890 517.091125,523.377319 514.338074,538.547302 
	C513.361877,543.926147 511.778107,544.312561 508.040619,540.598999 
	C478.558136,511.304626 454.347839,478.511566 440.489441,438.820129 
	C437.859772,431.288574 437.144348,422.870819 433.518005,416.115417 
	C429.909546,409.393463 433.504364,402.865723 431.255524,397.122955 
	C428.897766,391.102173 428.685333,385.276672 428.644531,379.182281 
	C428.628937,376.852081 428.514679,374.566711 430.419373,372.693420 
	C431.070892,372.052612 431.634277,370.833679 431.519104,369.975342 
	C429.888763,357.825897 436.900787,347.719391 439.552948,336.603882 
	C442.238098,325.350067 447.672333,314.914734 453.158997,304.698792 
	C458.747345,294.293488 465.156158,284.402740 472.042297,274.762909 
	C482.735413,259.793640 494.673157,245.973389 507.764130,233.103745 
	C512.125000,228.816574 513.446350,228.832214 517.551514,233.064880 
	C540.284485,256.503754 559.891602,282.214233 574.003967,311.802551 
	C581.216553,326.924530 586.298950,342.733459 589.735413,359.231812 
	C593.899841,379.225525 593.085632,399.083160 589.016235,418.653290 
	C583.563904,444.874176 572.279175,468.856720 557.475647,491.208374 
	C548.162109,505.270844 537.512939,518.251648 526.493774,530.958557 
	C524.717346,533.007019 523.058411,535.432800 518.942566,536.085999 
	C519.728699,529.922180 520.252075,524.271851 521.199463,518.693542 
	C523.650635,504.261841 525.652771,489.808929 527.099060,475.213837 
	C528.056641,465.549713 528.237549,455.972931 527.954285,446.407898 
	C527.286255,423.852295 523.141479,402.073608 510.634033,382.665436 
	C509.468353,380.856628 508.193024,379.077423 506.723846,377.514587 
	C504.370575,375.011230 503.553009,372.361389 504.194305,368.869568 
	C505.925629,359.442383 500.970825,354.092651 490.724304,354.438416 
z"/>
<path fill="#000000" opacity="1.000000" stroke="none" 
	d="
M794.540710,468.479736 
	C781.910645,495.080933 766.137451,518.987183 744.262329,538.459229 
	C726.780212,554.020813 707.072693,565.286133 684.265869,571.612671 
	C659.437073,578.500061 634.282227,580.273560 608.825439,579.037964 
	C595.929321,578.411926 583.069153,576.653259 570.252441,574.955872 
	C564.224182,574.157654 558.333008,572.311035 552.388733,570.901428 
	C551.225708,570.625610 550.123047,570.098816 550.005493,568.694824 
	C549.874512,567.129578 550.902161,566.346741 552.146667,565.660522 
	C565.569702,558.259583 579.261475,551.389832 593.175781,544.967529 
	C608.709167,537.797913 624.200317,530.528137 639.860107,523.643860 
	C651.404846,518.568604 662.656677,512.958191 673.752380,506.989563 
	C685.180969,500.841888 696.376831,494.323517 706.648071,486.361816 
	C709.705383,483.991974 712.582581,482.912567 716.659790,483.430786 
	C726.647339,484.700256 730.183411,482.534882 732.188171,475.196899 
	C733.634155,469.904327 730.991455,464.232788 725.993774,461.902802 
	C720.723877,459.445862 713.544434,461.203339 710.901367,465.947479 
	C709.163452,469.066864 707.154602,472.271393 709.338501,476.240082 
	C710.857178,478.999725 708.411499,480.496490 706.627136,481.930450 
	C694.240356,491.885162 680.496887,499.688599 666.451355,506.973785 
	C635.603088,522.974243 603.365540,536.006836 572.068298,551.048096 
	C564.777771,554.551941 557.691772,558.481445 550.656555,562.139771 
	C548.170105,560.074951 548.632751,557.750793 549.176331,555.777527 
	C558.773865,520.937622 571.906738,487.697998 593.743774,458.461121 
	C614.121826,431.177643 640.057617,411.663483 672.837708,401.537720 
	C690.049316,396.221100 707.574341,393.618378 725.576172,392.918030 
	C739.106445,392.391663 752.595703,392.850952 765.982849,393.969635 
	C775.947998,394.802399 785.967590,396.521759 795.807373,398.947723 
	C800.403564,400.080902 805.160217,400.844574 809.853333,401.722870 
	C813.767883,402.455475 815.944397,404.195038 815.141113,408.471191 
	C813.115234,419.256561 809.750854,429.676025 806.142944,439.994324 
	C802.800842,449.552338 799.182434,459.028687 794.540710,468.479736 
z"/>
<path fill="#000000" opacity="1.000000" stroke="none" 
	d="
M662.443726,620.409363 
	C671.663757,623.636719 678.399841,630.552246 687.050171,635.021912 
	C687.659546,639.606567 692.160156,642.604736 695.459045,646.321289 
	C697.481079,648.599182 699.459106,650.778198 700.216064,653.765808 
	C700.585938,655.225464 700.737000,656.867798 699.356567,657.923950 
	C697.660828,659.221436 696.532043,657.658142 695.526062,656.716248 
	C690.796387,652.287842 686.157654,647.762268 681.485657,643.272217 
	C669.056702,631.327271 654.454712,623.963684 637.056702,623.518677 
	C630.153198,623.342163 623.359680,625.244446 616.638611,627.299011 
	C603.664124,631.265137 591.962646,637.992004 579.671448,643.429199 
	C563.270447,650.684326 547.071472,650.495667 530.484558,643.528381 
	C518.956421,638.685913 508.129700,632.514343 496.801971,627.336426 
	C478.983337,619.191528 460.720886,618.690735 441.824158,623.435486 
	C429.732910,626.471436 419.791016,633.291077 409.216156,639.166260 
	C399.919617,644.331360 390.482208,649.395935 379.301910,649.137024 
	C362.672577,648.751892 348.038666,643.171875 335.623932,632.135315 
	C330.780792,627.829773 326.339966,623.061218 321.846710,618.378113 
	C320.108368,616.566223 316.997986,614.308655 319.366943,611.780151 
	C321.821503,609.160217 324.699860,611.064331 327.155670,613.280151 
	C334.551086,619.952820 341.803040,626.751648 350.679626,631.635681 
	C366.817230,640.514832 382.665863,640.107849 398.700226,631.504272 
	C407.468292,626.799500 415.789398,621.240540 425.097534,617.556641 
	C449.051392,608.076111 473.032990,607.284973 496.874115,617.760071 
	C505.234528,621.433350 513.383545,625.616272 521.489563,629.834595 
	C542.161316,640.592224 562.515198,640.532654 582.863281,628.858765 
	C594.034729,622.449463 606.270386,618.365234 618.695984,615.480042 
	C629.071228,613.070923 639.858032,613.284790 650.312134,616.223938 
	C654.301514,617.345581 658.171143,618.893250 662.443726,620.409363 
z"/>
<path fill="#000000" opacity="1.000000" stroke="none" 
	d="
M536.779297,607.153320 
	C550.077576,611.357239 562.747864,611.780518 575.335388,605.625793 
	C588.630920,599.124817 601.996155,592.696899 616.400452,588.876404 
	C642.911133,581.844910 665.981201,588.598450 686.135620,606.529480 
	C690.478821,610.393494 694.376526,614.759705 698.457031,618.916626 
	C700.468201,620.965454 702.035217,623.282104 702.696594,626.145813 
	C703.022400,627.556335 702.993286,628.813782 701.673401,629.687195 
	C700.252014,630.627686 699.153137,629.850769 698.136902,628.897339 
	C693.904114,624.926331 689.528015,621.094177 685.481079,616.941650 
	C675.718201,606.924072 664.185913,600.048706 650.566711,596.811218 
	C638.596924,593.965820 627.328857,596.673645 615.944946,600.584900 
	C604.384399,604.556763 593.811462,610.533630 582.656799,615.282898 
	C565.754211,622.479370 548.995361,622.282166 531.859436,615.101685 
	C520.762207,610.451599 510.379578,604.507141 499.512634,599.488892 
	C482.200470,591.494202 464.373474,590.515930 445.936096,595.053833 
	C434.404816,597.891968 423.947876,602.941406 414.411133,609.671997 
	C384.828217,630.550110 352.089355,619.491760 333.381470,599.860962 
	C329.936707,596.246216 326.254456,592.850220 322.933411,589.128723 
	C321.454407,587.471375 319.687103,585.138245 321.853668,582.959106 
	C324.032745,580.767395 326.330597,582.516724 328.057983,583.999084 
	C334.357605,589.405029 340.179047,595.367676 347.081421,600.067810 
	C360.159943,608.973450 374.139862,613.733582 389.919373,608.666809 
	C394.457184,607.209656 398.736053,604.825989 402.967316,602.556946 
	C415.534363,595.817688 427.594299,587.725891 441.812103,584.969116 
	C451.860809,583.020752 462.139893,582.715698 472.504974,582.942688 
	C492.730469,583.385681 508.272186,595.510193 525.771973,602.749451 
	C529.301086,604.209351 532.864380,605.586792 536.779297,607.153320 
z"/>
</svg>