<?xml version="1.0" standalone="no"?>
<!DOCTYPE svg PUBLIC "-//W3C//DTD SVG 20010904//EN"
 "http://www.w3.org/TR/2001/REC-SVG-20010904/DTD/svg10.dtd">
<svg version="1.0" xmlns="http://www.w3.org/2000/svg"
 width="500.000000pt" height="500.000000pt" viewBox="0 0 500.000000 500.000000"
 preserveAspectRatio="xMidYMid meet">

<g transform="translate(0.000000,500.000000) scale(0.100000,-0.100000)"
fill="#000000" stroke="none">
<path d="M2434 3809 c-282 -293 -385 -626 -285 -926 37 -113 63 -165 140 -279
57 -86 184 -234 201 -234 4 0 10 19 13 43 3 23 10 69 16 102 6 33 15 118 20
188 13 169 -2 271 -56 377 -35 69 -40 75 -66 72 -43 -5 -77 22 -77 62 0 40 26
66 67 66 38 0 63 -27 63 -69 0 -20 12 -50 31 -77 64 -93 73 -137 73 -359 0
-145 -4 -223 -16 -285 -9 -47 -16 -86 -15 -87 6 -6 124 146 176 227 99 153
161 343 161 488 0 154 -70 350 -184 520 -63 95 -179 232 -196 232 -4 0 -34
-27 -66 -61z"/>
<path d="M3438 3070 c-218 -35 -377 -120 -503 -269 -96 -113 -186 -291 -233
-457 l-20 -72 77 39 c70 35 130 63 311 145 117 53 244 120 313 165 59 38 67
47 67 75 0 17 8 38 18 47 25 22 75 21 95 -1 40 -44 3 -118 -56 -109 -24 3 -46
-7 -108 -48 -81 -54 -202 -116 -395 -203 -146 -66 -304 -145 -304 -152 0 -15
210 -42 328 -42 250 -1 404 45 561 167 145 114 272 314 347 549 20 64 35 119
32 122 -3 3 -48 14 -99 24 -108 23 -345 34 -431 20z"/>
<path d="M1307 3059 c-85 -9 -212 -35 -260 -52 l-36 -12 35 -104 c62 -187 173
-371 290 -482 210 -199 500 -255 887 -172 42 9 77 20 77 25 0 4 -6 8 -13 8 -7
0 -76 20 -153 45 -128 41 -275 107 -349 158 -53 35 -133 127 -157 177 -19 40
-28 49 -49 50 -54 0 -79 70 -39 110 24 24 58 26 89 4 21 -15 23 -22 18 -64 -5
-42 -2 -55 25 -96 80 -128 212 -216 434 -288 215 -69 234 -74 234 -61 0 17
-76 199 -112 268 -191 367 -508 534 -921 486z"/>
<path d="M2218 2143 c-10 -2 -18 -9 -18 -14 0 -6 6 -7 16 -1 9 5 25 7 35 5 11
-3 19 0 19 6 0 11 -20 13 -52 4z"/>
<path d="M1615 2099 c50 -51 109 -85 160 -92 34 -5 36 -4 15 5 -71 30 -116 56
-155 90 -57 50 -69 49 -20 -3z"/>
<path d="M2140 2119 c-11 -20 -11 -20 19 -4 36 18 39 25 11 25 -10 0 -24 -9
-30 -21z"/>
<path d="M2308 2133 c7 -3 16 -2 19 1 4 3 -2 6 -13 5 -11 0 -14 -3 -6 -6z"/>
<path d="M2343 2134 c10 -10 111 -43 116 -39 4 5 2 6 -68 30 -48 17 -58 18
-48 9z"/>
<path d="M3030 2109 c0 -5 5 -7 10 -4 6 3 10 8 10 11 0 2 -4 4 -10 4 -5 0 -10
-5 -10 -11z"/>
<path d="M3168 2113 c7 -3 16 -2 19 1 4 3 -2 6 -13 5 -11 0 -14 -3 -6 -6z"/>
<path d="M2945 2089 c-4 -6 -4 -13 -1 -16 3 -4 6 -1 6 6 0 7 5 9 12 5 7 -4 8
-3 4 4 -9 15 -13 15 -21 1z"/>
<path d="M3271 2068 c24 -17 65 -52 92 -77 26 -25 47 -41 47 -36 -1 16 -92
102 -133 124 -55 30 -58 26 -6 -11z"/>
<path d="M2470 2081 c0 -5 18 -15 40 -24 22 -8 40 -14 40 -11 0 2 -18 12 -40
23 -22 10 -40 16 -40 12z"/>
<path d="M2880 2070 l-35 -19 39 -1 c22 0 36 3 33 7 -4 3 -2 12 4 20 16 18 0
16 -41 -7z"/>
<path d="M2570 2035 c0 -6 43 -24 75 -32 37 -9 85 -10 85 -1 0 9 2 9 -63 14
-27 2 -57 9 -67 14 -21 11 -30 13 -30 5z"/>
<path d="M2794 2028 c-3 -4 -16 -8 -30 -8 -14 0 -23 -4 -19 -9 6 -10 77 -3 85
9 3 4 12 9 20 12 8 3 0 6 -18 5 -18 0 -35 -4 -38 -9z"/>
<path d="M1870 2011 c0 -5 9 -7 20 -4 11 3 20 7 20 9 0 2 -9 4 -20 4 -11 0
-20 -4 -20 -9z"/>
<path d="M1570 2006 c0 -2 8 -10 18 -17 15 -13 16 -12 3 4 -13 16 -21 21 -21
13z"/>
<path d="M1828 2003 c6 -2 18 -2 25 0 6 3 1 5 -13 5 -14 0 -19 -2 -12 -5z"/>
<path d="M2143 1997 c-13 -5 -23 -14 -23 -18 0 -11 44 -1 48 11 2 5 13 8 25 5
12 -3 36 -1 52 4 26 8 23 9 -25 9 -30 0 -65 -5 -77 -11z"/>
<path d="M2310 2000 c0 -6 5 -8 10 -5 6 3 10 2 10 -2 0 -5 19 -13 43 -19 23
-6 51 -14 62 -18 20 -8 20 -8 0 8 -11 9 -37 21 -58 27 -21 5 -45 13 -53 16 -8
3 -14 0 -14 -7z"/>
<path d="M3000 1980 c-24 -8 -23 -8 8 -9 20 -1 31 3 27 9 -3 6 -7 10 -8 9 -1
-1 -13 -5 -27 -9z"/>
<path d="M3120 1986 c0 -2 9 -6 20 -9 11 -3 20 -1 20 4 0 5 -9 9 -20 9 -11 0
-20 -2 -20 -4z"/>
<path d="M1628 1941 c17 -17 48 -39 70 -50 46 -23 149 -40 138 -23 -4 6 -21
11 -39 10 -34 -1 -101 29 -154 68 -44 33 -52 30 -15 -5z"/>
<path d="M2936 1954 c-9 -8 -20 -13 -26 -9 -11 7 -75 -24 -66 -32 3 -3 13 -2
23 2 10 5 27 10 37 12 11 2 25 8 31 13 7 5 16 6 20 2 5 -4 5 -2 2 5 -4 6 -1
14 5 16 9 4 9 6 1 6 -6 1 -19 -6 -27 -15z"/>
<path d="M3255 1938 c17 -12 56 -47 88 -77 31 -30 57 -50 57 -45 0 17 -103
111 -140 128 l-35 17 30 -23z"/>
<path d="M2460 1946 c0 -3 14 -12 30 -21 17 -9 30 -11 30 -6 0 5 -8 11 -17 15
-10 3 -24 9 -30 12 -7 3 -13 3 -13 0z"/>
<path d="M2550 1904 c0 -2 15 -11 33 -20 34 -18 141 -29 131 -13 -3 5 -20 9
-38 9 -18 0 -54 6 -79 14 -26 8 -47 12 -47 10z"/>
<path d="M2780 1892 c-19 -9 -36 -23 -38 -30 -2 -9 2 -11 10 -5 15 9 20 10 49
12 13 1 18 5 13 13 -5 8 -2 9 9 5 9 -3 19 -1 23 5 4 7 3 8 -4 4 -7 -4 -12 -2
-12 3 0 14 -8 13 -50 -7z"/>
<path d="M1855 1870 c-3 -5 -1 -10 4 -10 6 0 11 5 11 10 0 6 -2 10 -4 10 -3 0
-8 -4 -11 -10z"/>
<path d="M1660 1723 c-56 -21 -110 -117 -110 -197 0 -77 21 -101 92 -101 69 0
100 20 134 86 36 72 29 83 -49 74 -82 -10 -109 -21 -105 -43 4 -18 22 -20 76
-8 40 9 42 -5 7 -40 -35 -35 -95 -31 -108 6 -13 37 9 106 48 148 32 36 34 36
69 24 37 -14 56 -10 56 11 0 25 -77 52 -110 40z"/>
<path d="M2655 1628 c-4 -51 -5 -118 -3 -148 l3 -55 52 -3 c75 -4 133 13 133
40 0 22 -16 22 -107 3 l-33 -7 0 131 c0 122 -1 131 -19 131 -17 0 -20 -11 -26
-92z"/>
<path d="M2456 1628 c-11 -35 -15 -160 -6 -183 15 -40 34 -25 40 31 6 56 22
89 49 103 27 15 31 5 31 -68 0 -74 10 -97 35 -88 14 6 15 18 9 89 -3 46 -11
91 -16 101 -10 19 -49 22 -80 6 -17 -9 -23 -8 -30 5 -11 19 -27 21 -32 4z"/>
<path d="M3103 1633 c-16 -6 -18 -199 -3 -208 15 -9 40 14 33 31 -9 25 7 81
32 108 37 40 45 33 45 -36 0 -84 8 -108 32 -108 19 0 20 5 16 89 -2 53 -9 96
-17 105 -15 18 -58 21 -81 6 -10 -6 -20 -5 -30 4 -8 7 -21 11 -27 9z"/>
<path d="M1831 1616 c-8 -9 -11 -45 -9 -103 3 -80 5 -88 23 -88 17 0 20 8 23
60 3 61 21 95 49 95 8 0 17 -9 20 -20 9 -35 38 -20 38 19 0 46 -23 59 -70 42
-26 -9 -40 -10 -49 -2 -10 8 -16 8 -25 -3z"/>
<path d="M2060 1618 c-52 -27 -74 -122 -39 -164 30 -37 151 -35 166 2 9 23 -3
27 -45 17 -28 -7 -48 -7 -68 1 l-28 12 67 32 c56 26 67 35 67 55 0 14 -6 30
-14 36 -22 19 -78 23 -106 9z m59 -37 c12 -7 7 -13 -22 -27 -44 -21 -62 -10
-28 17 26 22 30 22 50 10z"/>
<path d="M2280 1618 c-52 -27 -74 -122 -39 -164 30 -37 151 -35 166 2 9 23 -3
27 -45 17 -28 -7 -48 -7 -68 1 l-28 12 67 32 c56 26 67 35 67 55 0 14 -6 30
-14 36 -22 19 -78 23 -106 9z m59 -37 c11 -7 7 -13 -18 -26 -43 -22 -61 -15
-33 13 24 24 30 26 51 13z"/>
<path d="M2920 1618 c-52 -27 -74 -122 -39 -164 30 -37 151 -35 166 2 9 23 -3
27 -45 17 -28 -7 -48 -7 -68 1 l-28 12 67 32 c56 26 67 35 67 55 0 14 -6 30
-14 36 -22 19 -78 23 -106 9z m59 -37 c11 -7 7 -13 -18 -26 -43 -22 -61 -15
-33 13 24 24 30 26 51 13z"/>
<path d="M3322 1614 c-32 -22 -26 -63 14 -89 18 -11 40 -25 50 -32 29 -18 -1
-33 -53 -26 -36 5 -43 3 -43 -11 0 -38 102 -45 141 -10 36 32 15 71 -59 108
-18 9 -30 21 -27 26 8 13 62 13 70 0 15 -24 38 7 28 38 -7 18 -94 15 -121 -4z"/>
</g>
</svg>
